<?xml version="1.0" standalone="no"?>
<!DOCTYPE svg PUBLIC "-//W3C//DTD SVG 1.1//EN" "http://www.w3.org/Graphics/SVG/1.1/DTD/svg11.dtd" >
<svg xmlns="http://www.w3.org/2000/svg">
<metadata></metadata>
<defs>
<font id="pretendoregular" horiz-adv-x="636" >
<font-face units-per-em="2048" ascent="1638" descent="-410" />
<missing-glyph horiz-adv-x="390" />
<glyph horiz-adv-x="2048" />
<glyph horiz-adv-x="2048" />
<glyph unicode="&#xd;" horiz-adv-x="390" />
<glyph unicode=" "  horiz-adv-x="390" />
<glyph unicode="&#x09;" horiz-adv-x="390" />
<glyph unicode="&#xa0;" horiz-adv-x="390" />
<glyph unicode="!" horiz-adv-x="249" />
<glyph unicode="&#x22;" horiz-adv-x="237" />
<glyph unicode="#" />
<glyph unicode="$" />
<glyph unicode="%" />
<glyph unicode="&#x26;" horiz-adv-x="486" />
<glyph unicode="'" horiz-adv-x="169" />
<glyph unicode="(" horiz-adv-x="336" />
<glyph unicode=")" horiz-adv-x="384" />
<glyph unicode="*" horiz-adv-x="492" />
<glyph unicode="+" />
<glyph unicode="," horiz-adv-x="237" />
<glyph unicode="-" horiz-adv-x="471" />
<glyph unicode="." horiz-adv-x="201" />
<glyph unicode="/" horiz-adv-x="357" />
<glyph unicode="0" />
<glyph unicode="1" />
<glyph unicode="2" />
<glyph unicode="3" />
<glyph unicode="4" />
<glyph unicode="5" />
<glyph unicode="6" />
<glyph unicode="7" />
<glyph unicode="8" />
<glyph unicode="9" />
<glyph unicode=":" horiz-adv-x="231" />
<glyph unicode=";" horiz-adv-x="237" />
<glyph unicode="&#x3c;" />
<glyph unicode="=" />
<glyph unicode="&#x3e;" />
<glyph unicode="?" horiz-adv-x="567" />
<glyph unicode="@" horiz-adv-x="579" />
<glyph unicode="A" horiz-adv-x="1637" d="M7 -4h530l1 554h485l2 -555l536 -1q3 103 4 199q0 1404 -720 1405q-32 0 -66 -3q-30 2 -59 3q-714 0 -714 -1474q0 -62 1 -128zM541 744q-1 36 0 70q0 641 224 642q7 0 14 -1h4q250 0 251 -642q0 -34 -1 -69h-145h-99h-248z" />
<glyph unicode="B" horiz-adv-x="1500" d="M5 -3h33h109h110h272q63 -3 122 -3q745 0 743 493q-22 362 -429 395q404 15 404 301q0 41 -8 87v10q0 343 -786 342q-49 0 -101 -1h-469v-1624zM477 216v467q5 71 192 75q179 -15 179 -187v-6v-128q1 -20 1 -39q0 -267 -174 -272q-189 0 -198 90zM486 1044v382 q4 57 172 61q161 -13 161 -153v-5v-105q1 -15 1 -30q0 -218 -156 -223h-5q-165 0 -173 73z" />
<glyph unicode="C" horiz-adv-x="1597" d="M1 807q35 -551 349 -708q201 -100 420 -100q123 -1 251 31q356 88 453 493h-529q-17 -191 -112 -276q-53 -47 -111 -47q-48 0 -98 30q-103 62 -103 501q0 42 1 89q6 395 111 521q60 72 119 72q44 1 88 -39q102 -94 104 -379l522 -2q-127 613 -742 639q-681 -52 -723 -825 z" />
<glyph unicode="D" horiz-adv-x="1551" d="M5 -4h36h117h118h292h19q873 0 876 743q2 39 2 76q0 809 -835 809q-58 0 -121 -4h-504v-1624zM497 406v869q16 83 191 83q14 0 29 -1q207 -24 207 -306v-8v-209q1 -30 1 -59q0 -438 -201 -448q-31 -3 -58 -3q-151 0 -169 82z" />
<glyph unicode="E" horiz-adv-x="1417" d="M2 0h453h855v322l-855 -1v356h685v245h-685v361l863 -1v317h-863h-453v-1599z" />
<glyph unicode="F" horiz-adv-x="1403" d="M2 0h453v677h685v245h-685v361l863 -1v317h-863h-453v-1599z" />
<glyph unicode="G" horiz-adv-x="1684" d="M1 802q37 -551 368 -708q201 -96 428 -96q145 0 301 40q398 101 457 780h-804l3 -220l273 -1q-9 -270 -130 -355q-67 -47 -133 -47q-54 0 -107 31q-109 62 -109 504q0 41 1 85q6 395 117 521q63 72 125 72q46 0 92 -40q107 -93 152 -383l523 -2q-65 608 -796 644 q-717 -52 -761 -825z" />
<glyph unicode="H" horiz-adv-x="1770" d="M2 0h29h94h95h235v695l712 -3l2 -692h39h94h94h235v141v94v188v142v187v95v141v94v235v94v188h-94h94h-94h-94h-95h-188v-707l-702 1l-3 706h-94h-95h-94h-170v-1599z" />
<glyph unicode="I" horiz-adv-x="601" d="M2 0h29h94h95h235v141v141v141v94v235v95v328v424h-94h94h-94h-95h-94h-170v-1599z" />
<glyph unicode="J" horiz-adv-x="1372" d="M1 767l3 -388q61 -367 600 -379q15 -1 29 -1q513 0 590 438v1180h-493v-1122q2 -37 2 -71q0 -268 -127 -268h-5q-132 4 -132 198q0 22 2 47l2 366h-471z" />
<glyph unicode="K" horiz-adv-x="1560" d="M2 0h35h113h115h284v666q38 5 71 5q248 0 250 -257l3 -422l545 1l3 483q-87 366 -423 366h-14q360 14 428 332v423h-586l3 -409v-7q0 -242 -250 -241h-30v659h-114h114h-114h-114h-114h-205v-1599z" />
<glyph unicode="L" horiz-adv-x="1300" d="M2 0h29h94h95h235l705 -4v301l-705 1v219v235v95v328v424h-94h94h-94h-95h-94h-170v-1599z" />
<glyph unicode="M" horiz-adv-x="1730" d="M2 0h29h94h95h235v141v141v141v94v235v95v223l407 -888l347 923l-1 -1105h94h94h235v141v94v188v142v187v95v141v94v235v94v188h-94h94h-94h-94h-95h-143l-360 -947l-410 947h-74h94h-94h-95h-94h-170v-1599z" />
<glyph unicode="N" horiz-adv-x="1693" d="M2 0h29h94h95h235v141v141v141v94v235v95v328l734 -1175h19h94h94h235v141v94v188v142v187v95v141v94v235v94v188h-94h94h-94h-94h-95h-188v-1082l-705 1082h-94h94h-94h-95h-94h-170v-1599z" />
<glyph unicode="O" horiz-adv-x="1489" d="M4 858q10 -411 163.5 -617.5t501.5 -243.5h81q270 35 460 231q182 189 181 599v35q-22 353 -185 539.5t-453 206.5h-78q-16 1 -32 1q-245 -1 -423 -159q-190 -168 -216 -592zM483 569v473q5 360 216 369q198 -2 202 -374v-459v-17q0 -337 -198 -361q-206 18 -220 369z " />
<glyph unicode="P" horiz-adv-x="1298" d="M5 -3h29h96h96h239v670q56 -3 107 -3q636 0 637 417q0 19 -2 39q1 21 1 41q0 461 -766 460h-25h-412v-1624zM465 926v467q4 71 149 75q142 -15 141 -193v-128q1 -18 1 -35q0 -271 -137 -276q-147 0 -154 90z" />
<glyph unicode="Q" horiz-adv-x="1499" d="M5 839q10 -411 163.5 -617.5t454.5 -225.5l-2 -242q38 -230 527 -230q54 0 113 3l-3 421q-58 -5 -102 -5q-153 0 -153 59q0 20 17 46q106 45 240 219q132 170 132 559v17q-22 353 -185 539.5t-453 206.5h-78q-16 1 -32 1q-245 0 -422 -158q-190 -169 -217 -593zM484 550 v473q5 360 216 369q198 -2 202 -374v-459v-17q0 -337 -198 -361q-206 18 -220 369z" />
<glyph unicode="R" horiz-adv-x="1450" d="M5 -3h32h105h105h262v670q21 1 41 1q291 0 291 -199v-11l-1 -460h487l3 465q-21 230 -299 281q273 60 291 376q2 21 2 41q0 460 -839 460h-28h-452v-1624zM500 926v467q4 71 149 75q142 -15 141 -193v-128q1 -18 1 -35q0 -271 -137 -276q-147 0 -154 90z" />
<glyph unicode="S" horiz-adv-x="1585" d="M5 1178q0 123 79.5 232.5t240 172t439.5 62.5q314 -9 505 -109l6 -338q-399 150 -566 150q-96 0 -145 -36.5t-49 -88.5q0 -38 40 -69q39 -31 185 -58q362 -70 518.5 -141t227.5 -176.5t71 -236.5q0 -153 -95 -282.5t-265 -196.5t-430 -67q-455 0 -688 205v374 q401 -238 706 -242q128 0 182.5 37.5t54.5 103.5q0 62 -61 110q-61 49 -283 93q-363 73 -517 194q-156 120 -156 307z" />
<glyph unicode="T" horiz-adv-x="1799" d="M2 1409l560 1v-1410h583v1410l555 -1v190h-610h-453h-635v-190z" />
<glyph unicode="U" horiz-adv-x="1530" d="M1 1641l3 -1258q70 -373 694 -385h33q593 0 683 443v1195h-570v-1136q2 -38 2 -72q0 -271 -147 -271h-5q-153 4 -153 200q0 23 2 48l2 1236h-544z" />
<glyph unicode="V" horiz-adv-x="1734" d="M1 1628h540l268 -1032l291 1033l535 1l-601 -1635h-259l-224 1z" />
<glyph unicode="W" horiz-adv-x="2370" d="M2 1598h493l270 -1070l387 888l367 -923l219 1110h528l-325 -1604h-426l-360 947l-380 -947h-393z" />
<glyph unicode="X" horiz-adv-x="1761" d="M3 0l551 833l-501 765h544l283 -492l275 492h538l-497 -774l544 -824h-555l-315 513l-316 -513h-551z" />
<glyph unicode="Y" horiz-adv-x="1589" d="M1 1032q18 -270 419 -299v-734h581v740q432 43 452 280l-3 599l-466 -1v-451q-50 -206 -194 -206q-9 0 -19 1h-62h-8q-164 0 -205 190v460l-495 1v-580z" />
<glyph unicode="Z" horiz-adv-x="1480" d="M1 -2h1398v29v94v95v235h-123h-124h-123h-82h-205h-84h-286l1027 734v19v94v94v235h-123h-82h-165h-124h-163h-84h-123h-82h-205h-83h-164v-94v94v-94v-94v-95v-188h946l-946 -705v-94v94v-94v-95v-94v-170z" />
<glyph unicode="[" horiz-adv-x="282" />
<glyph unicode="\" horiz-adv-x="318" />
<glyph unicode="]" horiz-adv-x="312" />
<glyph unicode="^" horiz-adv-x="330" />
<glyph unicode="_" horiz-adv-x="1134" />
<glyph unicode="`" horiz-adv-x="357" />
<glyph unicode="a" horiz-adv-x="1419" d="M6 566q-2 -23 -2 -46q0 -182 119 -338q134 -176 420 -182q53 -2 98 -2q193 0 237 35l1 -38h470v198v94v187v141v187v94v140v83l-469 1v-37q-72 61 -265 61q-48 0 -104 -4q-293 -73 -397.5 -228.5t-107.5 -345.5zM510 421v302q8 284 195 291q182 -16 182 -174 q0 -11 -1 -22v-527q3 -142 -177 -161q-184 14 -199 291z" />
<glyph unicode="b" horiz-adv-x="1441" d="M3 -5v198v94v187v141v187v94v140v94v234v93v188h94h-94h94h94h93h188v-562q72 61 265 61q48 0 104 -4q293 -73 397.5 -228.5t107.5 -345.5q2 -23 2 -46q0 -182 -119 -338q-134 -176 -420 -182q-53 -2 -98 -2q-193 0 -237 35l-1 -38h-470zM466 291q-3 -142 177 -161 q184 14 199 291v302q-8 284 -195 291q-182 -16 -182 -174q0 -11 1 -22v-527z" />
<glyph unicode="c" horiz-adv-x="1365" d="M2 583l1 -78q75 -351 325 -448q153 -59 318 -59q104 0 216 24q286 62 374 419h-87h87h-87h-87h-87h-164q3 -35 3 -66q0 -154 -80 -203q-53 -33 -106 -32q-43 0 -86 20q-89 43 -89 352q0 29 1 59q5 275 95 363q44 43 89 43q46 0 94 -46q90 -87 89 -343v-17h197h87h141 q-28 547 -619 565q-552 -26 -625 -553z" />
<glyph unicode="d" horiz-adv-x="1453" d="M6 566q-2 -23 -2 -46q0 -182 119 -338q134 -176 420 -182q53 -2 98 -2q193 0 237 35l1 -38h470v198v94v187v141v187v94v140v94v234v93v188h-94h94h-94h-94h-93h-188v-562q-72 61 -265 61q-48 0 -104 -4q-293 -73 -397.5 -228.5t-107.5 -345.5zM510 421v302q8 284 195 291 q182 -16 182 -174q0 -11 -1 -22v-527q3 -142 -177 -161q-184 14 -199 291z" />
<glyph unicode="e" horiz-adv-x="1306" d="M1 583l1 -78q74 -351 324 -448q153 -59 319 -59q105 0 217 24q286 62 373 419h-87h87h-87h-87h-87h-164q3 -35 3 -66q1 -154 -79 -203q-53 -33 -107 -32q-43 0 -86 20q-89 43 -89 352q0 29 1 59h130h130h87h217h87h141q-28 547 -619 565q-552 -26 -625 -553zM453 745 q5 260 179 269q166 -21 168 -269h-87h-87h-173z" />
<glyph unicode="f" horiz-adv-x="1539" d="M4 622l364 1l-2 -623h468v617h325v155l-325 1v448q-1 13 -1 24q0 176 141 177h5q123 0 127 -201v-153h363v281q-24 265 -421 265q-35 0 -74 -2h-27q-581 0 -581 -359q0 -18 1 -36l-1 -444l-362 2v-153z" />
<glyph unicode="g" horiz-adv-x="1549" d="M2 -411l1100 -1h15q277 0 277 397v25v198v94v187v141v187v94v140v88l-469 -4v-37q-72 61 -265 61q-48 0 -104 -4q-293 -73 -397.5 -228.5t-107.5 -345.5q-2 -23 -2 -46q0 -181 119 -337q134 -177 420 -183q53 -2 98 -2q192 0 237 35l1 -38q1 -5 1 -10q0 -55 -127 -55 q-33 0 -74 4l-720 -1zM555 436v302q8 284 195 291q182 -16 182 -174q0 -11 -1 -22v-527q3 -142 -177 -161q-184 14 -199 291z" />
<glyph unicode="h" horiz-adv-x="1473" d="M1 -3h56h96h96h239v192v96v240v95v192q68 121 200 121q11 0 23 -1q211 -17 210 -168v-767h96h-96h96h96h96h191v144v96v96v96v239v48v-48v96v-24v-24v48q-12 386 -443 386q-43 0 -90 -4q-218 -24 -378 -180l-4 134l4 495h-486l-2 -495v-1103z" />
<glyph unicode="i" horiz-adv-x="731" d="M4 -4h95h-95h95h95h95h237v95v-95v95v95v95v237v95v237v48v-48v48l3 190h-145h95h-95h-95h-95h-190v-1092zM4 1278h95h-95h95h95h95h237v95v-95v95v237h-95h95h-95h-95h-95h-237v-95v95v-332z" />
<glyph unicode="j" horiz-adv-x="1124" d="M-1 -4v-390h710q360 0 359 300l-2 90v95v-95v95v95v95v237v95v237v48v-48v48l3 190h-145h95h-95h-95h-95h-190v-921v-17q0 -155 -171 -155q-10 0 -21 1h-353zM544 1278h95h-95h95h95h95h237v95v-95v95v237h-95h95h-95h-95h-95h-237v-95v95v-332z" />
<glyph unicode="k" horiz-adv-x="1485" d="M1 -3h56h96h96h239v465v12q0 219 208 223q13 1 24 1q201 0 201 -199v-20v-482h96h-96h96h96h96h191v522q-18 436 -467 436q-116 0 -261 -29l691 544l-511 -2l-367 -298l4 425h-486l-2 -495v-1103z" />
<glyph unicode="l" horiz-adv-x="554" d="M2 0h29h94h95h235v141v141v141v94v235v95v328v424h-94h94h-94h-95h-94h-170v-1599z" />
<glyph unicode="m" horiz-adv-x="2105" d="M1 -3h47h81h81h202v192v96v240v95v192q58 121 169 121q9 0 19 -1q178 -17 178 -168v-767h81h-81h81h81h81h161v733q66 164 205 164q19 0 39 -3q9 1 17 1q172 0 172 -206v-14l-3 -668l393 -2v811q-31 358 -381 358q-58 0 -125 -10q-269 -111 -317 -237q-76 232 -336 232 q-53 0 -114 -10q-184 -24 -319 -180l1 134h-123h81h-81h-81h-81h-128v-1103z" />
<glyph unicode="n" horiz-adv-x="1533" d="M1 -3h56h96h96h239v192v96v240v95v192q68 121 200 121q11 0 23 -1q211 -17 210 -168v-767h96h-96h96h96h96h191v144v96v96v96v239v48v-48v96v-24v-24v48q-12 386 -443 386q-43 0 -90 -4q-218 -24 -378 -180l1 134h-145h95h-95h-96h-96h-152v-1103z" />
<glyph unicode="o" horiz-adv-x="1382" d="M1 608q9 -290 154.5 -436t474.5 -172h77q255 26 435 164q172 133 171 421v26q-21 249 -175 380.5t-428 145.5h-74q-16 1 -31 1q-231 0 -399 -112q-179 -119 -205 -418zM454 404v334q5 254 204 260q188 -1 192 -264v-324v-10q0 -239 -188 -257q-195 13 -208 261z" />
<glyph unicode="p" horiz-adv-x="1437" d="M3 -430h469v487q72 -61 265 -61q48 0 104 4q293 73 397.5 228.5t107.5 345.5q2 23 2 46q0 181 -119 338q-134 176 -420 182q-53 2 -98 2q-192 0 -237 -35l-1 38h-470v-1575zM466 322v527q-3 142 177 161q184 -14 199 -291v-302q-8 -284 -195 -291q-182 16 -182 174 q0 11 1 22z" />
<glyph unicode="q" horiz-adv-x="1414" d="M4 574q-2 23 -2 46q0 181 119 338q134 176 420 182q53 2 98 2q192 0 237 -35l1 38h470v-1575h-469v487q-72 -61 -265 -61q-48 0 -104 4q-293 73 -397.5 228.5t-107.5 345.5zM508 417q8 -284 195 -291q182 16 182 174q0 11 -1 22v527q3 142 -177 161q-184 -14 -199 -291 v-302z" />
<glyph unicode="r" horiz-adv-x="1275" d="M3 -3h56h96h96h239v192v96v240v95v192q2 91 119 117h19q194 0 194 -157v-8h360q2 346 -381 345q-39 0 -83 -3q-150 -31 -227 -140l1 134h-145h95h-95h-96h-96h-152v-1103z" />
<glyph unicode="s" horiz-adv-x="1176" d="M5 861q0 90 56.5 170t169.5 125.5t311 45.5q222 -7 357 -79l4 -248q-282 110 -400 110q-68 0 -102.5 -26.5t-34.5 -65.5q0 -28 28 -50q28 -23 131 -43q256 -51 366.5 -103t161 -129t50.5 -173q0 -112 -67 -206.5t-187.5 -143.5t-304.5 -49q-322 0 -487 150v273 q284 -173 499 -176q91 0 129.5 27.5t38.5 74.5q0 46 -43 81q-43 36 -200 68q-257 53 -366 142q-110 88 -110 225z" />
<glyph unicode="t" horiz-adv-x="1089" d="M3 998h272v-999h91h-91h91h90h91h181v136v91v227v91v182v91v181h91h181v182h-91h91h-91h-181v227h-453v-227h-91h-181v-182z" />
<glyph unicode="u" horiz-adv-x="1480" d="M0 382v24v24v-48q12 -394 635 -394q47 0 98 2h4q129 0 174 60l-1 -59h489v1158h-56h-96h-96h-239v-970q-42 -47 -141 -47q-39 0 -87 7q-206 40 -206 224q0 9 1 19v767h-96h96h-96h-96h-96h-191v-144v-96v-96v-96v-239v-48v48v-96z" />
<glyph unicode="v" horiz-adv-x="1531" d="M1 1131h477l237 -718l257 718l473 1l-531 -1137h-229l-198 -4z" />
<glyph unicode="w" horiz-adv-x="2341" d="M3 1158h456l198 -729l249 729h425l259 -729l198 729h452l-452 -1158h-419l-249 697l-240 -697h-421z" />
<glyph unicode="x" horiz-adv-x="1614" d="M3 0l482 601l-438 551h475l247 -355l241 355h470l-434 -558l475 -594h-485l-275 370l-276 -370h-482z" />
<glyph unicode="y" horiz-adv-x="1484" d="M0 398v24v24v-48q12 -386 443 -386q43 0 90 4q218 24 378 180l1 -98q2 -15 2 -28q0 -131 -179 -131h-12l-721 -1v-372l1034 1q361 0 363 300v1298h-56h-96h-96h-239v-192v-96v-240v-95v-192q-68 -121 -200 -121q-11 0 -23 1q-211 17 -210 168v767h-96h96h-96h-96h-96 h-191v-144v-96v-96v-96v-239v-48v48v-96z" />
<glyph unicode="z" horiz-adv-x="1194" d="M1 -2h1079v20v63v64v269h-648l648 386v12v64v63v159h-95h-63h-128h-95h-126h-65h-95h-63h-158h-64h-127v-63v63v-63v-64v-64v-217h605l-605 -386v-64v64v-64v-64v-63v-115z" />
<glyph unicode="{" horiz-adv-x="420" />
<glyph unicode="|" horiz-adv-x="201" />
<glyph unicode="}" horiz-adv-x="360" />
<glyph unicode="~" />
<glyph unicode="&#xa1;" horiz-adv-x="309" />
<glyph unicode="&#xa2;" />
<glyph unicode="&#xa3;" />
<glyph unicode="&#xa4;" horiz-adv-x="420" />
<glyph unicode="&#xa5;" />
<glyph unicode="&#xa6;" horiz-adv-x="201" />
<glyph unicode="&#xa7;" horiz-adv-x="420" />
<glyph unicode="&#xa8;" horiz-adv-x="371" />
<glyph unicode="&#xa9;" horiz-adv-x="714" />
<glyph unicode="&#xaa;" horiz-adv-x="402" />
<glyph unicode="&#xab;" horiz-adv-x="540" />
<glyph unicode="&#xac;" horiz-adv-x="1395" />
<glyph unicode="&#xad;" horiz-adv-x="471" />
<glyph unicode="&#xae;" horiz-adv-x="747" />
<glyph unicode="&#xaf;" horiz-adv-x="360" />
<glyph unicode="&#xb0;" horiz-adv-x="285" />
<glyph unicode="&#xb1;" />
<glyph unicode="&#xb2;" horiz-adv-x="300" />
<glyph unicode="&#xb3;" horiz-adv-x="300" />
<glyph unicode="&#xb4;" horiz-adv-x="462" />
<glyph unicode="&#xb6;" horiz-adv-x="450" />
<glyph unicode="&#xb7;" horiz-adv-x="207" />
<glyph unicode="&#xb8;" horiz-adv-x="321" />
<glyph unicode="&#xb9;" horiz-adv-x="300" />
<glyph unicode="&#xba;" horiz-adv-x="402" />
<glyph unicode="&#xbb;" horiz-adv-x="540" />
<glyph unicode="&#xbc;" horiz-adv-x="786" />
<glyph unicode="&#xbd;" horiz-adv-x="786" />
<glyph unicode="&#xbe;" horiz-adv-x="786" />
<glyph unicode="&#xbf;" horiz-adv-x="567" />
<glyph unicode="&#xc0;" horiz-adv-x="609" />
<glyph unicode="&#xc1;" horiz-adv-x="609" />
<glyph unicode="&#xc2;" horiz-adv-x="609" />
<glyph unicode="&#xc3;" horiz-adv-x="609" />
<glyph unicode="&#xc4;" horiz-adv-x="609" />
<glyph unicode="&#xc5;" horiz-adv-x="609" />
<glyph unicode="&#xc6;" horiz-adv-x="819" />
<glyph unicode="&#xc7;" horiz-adv-x="729" />
<glyph unicode="&#xc8;" horiz-adv-x="648" />
<glyph unicode="&#xc9;" horiz-adv-x="648" />
<glyph unicode="&#xca;" horiz-adv-x="648" />
<glyph unicode="&#xcb;" horiz-adv-x="648" />
<glyph unicode="&#xcc;" horiz-adv-x="234" />
<glyph unicode="&#xcd;" horiz-adv-x="234" />
<glyph unicode="&#xce;" horiz-adv-x="234" />
<glyph unicode="&#xcf;" horiz-adv-x="234" />
<glyph unicode="&#xd0;" horiz-adv-x="663" />
<glyph unicode="&#xd1;" horiz-adv-x="612" />
<glyph unicode="&#xd2;" horiz-adv-x="696" />
<glyph unicode="&#xd3;" horiz-adv-x="696" />
<glyph unicode="&#xd4;" horiz-adv-x="696" />
<glyph unicode="&#xd5;" horiz-adv-x="696" />
<glyph unicode="&#xd6;" horiz-adv-x="696" />
<glyph unicode="&#xd7;" />
<glyph unicode="&#xd8;" horiz-adv-x="696" />
<glyph unicode="&#xd9;" horiz-adv-x="660" />
<glyph unicode="&#xda;" horiz-adv-x="660" />
<glyph unicode="&#xdb;" horiz-adv-x="660" />
<glyph unicode="&#xdc;" horiz-adv-x="660" />
<glyph unicode="&#xdd;" horiz-adv-x="526" />
<glyph unicode="&#xde;" horiz-adv-x="576" />
<glyph unicode="&#xdf;" horiz-adv-x="498" />
<glyph unicode="&#xe0;" horiz-adv-x="369" />
<glyph unicode="&#xe1;" horiz-adv-x="369" />
<glyph unicode="&#xe2;" horiz-adv-x="369" />
<glyph unicode="&#xe3;" horiz-adv-x="369" />
<glyph unicode="&#xe4;" horiz-adv-x="369" />
<glyph unicode="&#xe5;" horiz-adv-x="369" />
<glyph unicode="&#xe6;" horiz-adv-x="747" />
<glyph unicode="&#xe7;" horiz-adv-x="510" />
<glyph unicode="&#xe8;" horiz-adv-x="486" />
<glyph unicode="&#xe9;" horiz-adv-x="486" />
<glyph unicode="&#xea;" horiz-adv-x="486" />
<glyph unicode="&#xeb;" horiz-adv-x="486" />
<glyph unicode="&#xec;" horiz-adv-x="234" />
<glyph unicode="&#xed;" horiz-adv-x="234" />
<glyph unicode="&#xee;" horiz-adv-x="234" />
<glyph unicode="&#xef;" horiz-adv-x="234" />
<glyph unicode="&#xf0;" horiz-adv-x="483" />
<glyph unicode="&#xf1;" horiz-adv-x="384" />
<glyph unicode="&#xf2;" horiz-adv-x="366" />
<glyph unicode="&#xf3;" horiz-adv-x="366" />
<glyph unicode="&#xf4;" horiz-adv-x="366" />
<glyph unicode="&#xf5;" horiz-adv-x="366" />
<glyph unicode="&#xf6;" horiz-adv-x="366" />
<glyph unicode="&#xf7;" />
<glyph unicode="&#xf8;" horiz-adv-x="366" />
<glyph unicode="&#xf9;" horiz-adv-x="342" />
<glyph unicode="&#xfa;" horiz-adv-x="342" />
<glyph unicode="&#xfb;" horiz-adv-x="342" />
<glyph unicode="&#xfc;" horiz-adv-x="342" />
<glyph unicode="&#xfd;" horiz-adv-x="393" />
<glyph unicode="&#xfe;" horiz-adv-x="348" />
<glyph unicode="&#xff;" horiz-adv-x="393" />
<glyph unicode="&#x152;" horiz-adv-x="954" />
<glyph unicode="&#x153;" horiz-adv-x="756" />
<glyph unicode="&#x178;" horiz-adv-x="526" />
<glyph unicode="&#x2c6;" horiz-adv-x="360" />
<glyph unicode="&#x2dc;" horiz-adv-x="483" />
<glyph unicode="&#x2000;" horiz-adv-x="822" />
<glyph unicode="&#x2001;" horiz-adv-x="1645" />
<glyph unicode="&#x2002;" horiz-adv-x="822" />
<glyph unicode="&#x2003;" horiz-adv-x="1645" />
<glyph unicode="&#x2004;" horiz-adv-x="548" />
<glyph unicode="&#x2005;" horiz-adv-x="411" />
<glyph unicode="&#x2006;" horiz-adv-x="274" />
<glyph unicode="&#x2007;" horiz-adv-x="274" />
<glyph unicode="&#x2008;" horiz-adv-x="205" />
<glyph unicode="&#x2009;" horiz-adv-x="329" />
<glyph unicode="&#x200a;" horiz-adv-x="91" />
<glyph unicode="&#x2010;" horiz-adv-x="471" />
<glyph unicode="&#x2011;" horiz-adv-x="471" />
<glyph unicode="&#x2012;" horiz-adv-x="471" />
<glyph unicode="&#x2013;" horiz-adv-x="684" />
<glyph unicode="&#x2014;" horiz-adv-x="894" />
<glyph unicode="&#x2018;" horiz-adv-x="237" />
<glyph unicode="&#x2019;" horiz-adv-x="240" />
<glyph unicode="&#x201a;" horiz-adv-x="234" />
<glyph unicode="&#x201c;" horiz-adv-x="342" />
<glyph unicode="&#x201d;" horiz-adv-x="300" />
<glyph unicode="&#x201e;" horiz-adv-x="402" />
<glyph unicode="&#x2022;" horiz-adv-x="387" />
<glyph unicode="&#x2026;" horiz-adv-x="792" />
<glyph unicode="&#x202f;" horiz-adv-x="329" />
<glyph unicode="&#x2039;" horiz-adv-x="321" />
<glyph unicode="&#x203a;" horiz-adv-x="321" />
<glyph unicode="&#x205f;" horiz-adv-x="411" />
<glyph unicode="&#x2122;" horiz-adv-x="681" />
<glyph unicode="&#x25fc;" horiz-adv-x="1150" d="M0 0v1150h1150v-1150h-1150z" />
</font>
</defs>
</svg>
